<?xml version="1.0" encoding="UTF-8" standalone="no"?><svg xmlns="http://www.w3.org/2000/svg" xmlns:xlink="http://www.w3.org/1999/xlink" contentScriptType="application/ecmascript" contentStyleType="text/css" height="469px" preserveAspectRatio="none" style="width:795px;height:469px;" version="1.1" viewBox="0 0 795 469" width="795px" zoomAndPan="magnify"><defs/><g><!--MD5=[3b33aac52bf85bcbfceea1b1d7f3c296]
class P--><rect fill="#FFFFFF" height="25.2217" id="P" style="stroke: #808080; stroke-width: 1.5;" width="13" x="359" y="8"/><text fill="#000000" font-family="Consolas" font-size="13" lengthAdjust="spacingAndGlyphs" textLength="7" x="362" y="24.8765">P</text><!--MD5=[ef539f75be16fc0b099eba24e322290f]
class F1--><rect fill="#FFFFFF" height="25.2217" id="F1" style="stroke: #808080; stroke-width: 1.5;" width="20" x="296.5" y="93"/><text fill="#000000" font-family="Consolas" font-size="13" lengthAdjust="spacingAndGlyphs" textLength="14" x="299.5" y="109.8765">F1</text><!--MD5=[10ed8b8b795e6751459114ef39897030]
class F2--><rect fill="#FFFFFF" height="25.2217" id="F2" style="stroke: #808080; stroke-width: 1.5;" width="20" x="452.5" y="93"/><text fill="#000000" font-family="Consolas" font-size="13" lengthAdjust="spacingAndGlyphs" textLength="14" x="455.5" y="109.8765">F2</text><!--MD5=[ffdf888bef4f4b5cb1472b162a5fec51]
class U1--><rect fill="#FFFFFF" height="25.2217" id="U1" style="stroke: #808080; stroke-width: 1.5;" width="20" x="139.5" y="178"/><text fill="#000000" font-family="Consolas" font-size="13" lengthAdjust="spacingAndGlyphs" textLength="14" x="142.5" y="194.8765">U1</text><!--MD5=[ce9e6ff32917459eedc416dbc410b0e5]
class U2--><rect fill="#FFFFFF" height="25.2217" id="U2" style="stroke: #808080; stroke-width: 1.5;" width="20" x="257.5" y="178"/><text fill="#000000" font-family="Consolas" font-size="13" lengthAdjust="spacingAndGlyphs" textLength="14" x="260.5" y="194.8765">U2</text><!--MD5=[6e026031719179d81d99e078bdc161ae]
class F3--><rect fill="#FFFFFF" height="25.2217" id="F3" style="stroke: #808080; stroke-width: 1.5;" width="20" x="452.5" y="178"/><text fill="#000000" font-family="Consolas" font-size="13" lengthAdjust="spacingAndGlyphs" textLength="14" x="455.5" y="194.8765">F3</text><!--MD5=[757a03ebce0b8ca0fdf4418b407190cb]
class F4--><rect fill="#FFFFFF" height="25.2217" id="F4" style="stroke: #808080; stroke-width: 1.5;" width="20" x="562.5" y="178"/><text fill="#000000" font-family="Consolas" font-size="13" lengthAdjust="spacingAndGlyphs" textLength="14" x="565.5" y="194.8765">F4</text><!--MD5=[0cff19c4f114f165c38ae9af9a8d3719]
class U3--><rect fill="#FFFFFF" height="25.2217" id="U3" style="stroke: #808080; stroke-width: 1.5;" width="20" x="424.5" y="263"/><text fill="#000000" font-family="Consolas" font-size="13" lengthAdjust="spacingAndGlyphs" textLength="14" x="427.5" y="279.8765">U3</text><!--MD5=[381cb7ab0f82854dab99c8d62656afde]
class U4--><rect fill="#FFFFFF" height="25.2217" id="U4" style="stroke: #808080; stroke-width: 1.5;" width="20" x="534.5" y="263"/><text fill="#000000" font-family="Consolas" font-size="13" lengthAdjust="spacingAndGlyphs" textLength="14" x="537.5" y="279.8765">U4</text><!--MD5=[469d13cf6982b150940cf9288e6051dc]
class U5--><rect fill="#FFFFFF" height="25.2217" id="U5" style="stroke: #808080; stroke-width: 1.5;" width="20" x="591.5" y="263"/><text fill="#000000" font-family="Consolas" font-size="13" lengthAdjust="spacingAndGlyphs" textLength="14" x="594.5" y="279.8765">U5</text><!--MD5=[851a25320798db980a2fded2db98d3b3]
class U6--><rect fill="#FFFFFF" height="25.2217" id="U6" style="stroke: #808080; stroke-width: 1.5;" width="20" x="701.5" y="263"/><text fill="#000000" font-family="Consolas" font-size="13" lengthAdjust="spacingAndGlyphs" textLength="14" x="704.5" y="279.8765">U6</text><!--MD5=[e9c1767e4971cc35c3a4e44b9a020f6f]
class U7--><rect fill="#FFFFFF" height="25.2217" id="U7" style="stroke: #808080; stroke-width: 1.5;" width="20" x="75.5" y="263"/><text fill="#000000" font-family="Consolas" font-size="13" lengthAdjust="spacingAndGlyphs" textLength="14" x="78.5" y="279.8765">U7</text><!--MD5=[7fe1b8b19c510630f41a0f04d43ff9ef]
class U8--><rect fill="#FFFFFF" height="25.2217" id="U8" style="stroke: #808080; stroke-width: 1.5;" width="20" x="139.5" y="263"/><text fill="#000000" font-family="Consolas" font-size="13" lengthAdjust="spacingAndGlyphs" textLength="14" x="142.5" y="279.8765">U8</text><!--MD5=[45e7afdbce2984f9fc49df1bfeb24871]
class S1--><rect fill="#FFFFFF" height="25.2217" id="S1" style="stroke: #808080; stroke-width: 1.5;" width="20" x="257.5" y="263"/><text fill="#000000" font-family="Consolas" font-size="13" lengthAdjust="spacingAndGlyphs" textLength="14" x="260.5" y="279.8765">S1</text><!--MD5=[995ad41e55dabc4fdb316658f31e8c4f]
class S2--><rect fill="#FFFFFF" height="25.2217" id="S2" style="stroke: #808080; stroke-width: 1.5;" width="20" x="367.5" y="263"/><text fill="#000000" font-family="Consolas" font-size="13" lengthAdjust="spacingAndGlyphs" textLength="14" x="370.5" y="279.8765">S2</text><!--MD5=[192656cf42c373f0867e89ba31c24749]
class S3--><rect fill="#FFFFFF" height="25.2217" id="S3" style="stroke: #808080; stroke-width: 1.5;" width="20" x="316.5" y="348"/><text fill="#000000" font-family="Consolas" font-size="13" lengthAdjust="spacingAndGlyphs" textLength="14" x="319.5" y="364.8765">S3</text><!--MD5=[e3b705e177811b286a0ab4b18a12f6e4]
class S4--><rect fill="#FFFFFF" height="25.2217" id="S4" style="stroke: #808080; stroke-width: 1.5;" width="20" x="426.5" y="348"/><text fill="#000000" font-family="Consolas" font-size="13" lengthAdjust="spacingAndGlyphs" textLength="14" x="429.5" y="364.8765">S4</text><!--MD5=[7d96d03ecfe9342186843b77778b10f1]
class S5--><rect fill="#FFFFFF" height="25.2217" id="S5" style="stroke: #808080; stroke-width: 1.5;" width="20" x="481.5" y="348"/><text fill="#000000" font-family="Consolas" font-size="13" lengthAdjust="spacingAndGlyphs" textLength="14" x="484.5" y="364.8765">S5</text><!--MD5=[895761ed62fa31d375a3d904017297d8]
class S6--><rect fill="#FFFFFF" height="25.2217" id="S6" style="stroke: #808080; stroke-width: 1.5;" width="20" x="536.5" y="348"/><text fill="#000000" font-family="Consolas" font-size="13" lengthAdjust="spacingAndGlyphs" textLength="14" x="539.5" y="364.8765">S6</text><!--MD5=[a0e4509d7d5ecf5a7caeed9c6bbab7d2]
class S7--><rect fill="#FFFFFF" height="25.2217" id="S7" style="stroke: #808080; stroke-width: 1.5;" width="20" x="591.5" y="348"/><text fill="#000000" font-family="Consolas" font-size="13" lengthAdjust="spacingAndGlyphs" textLength="14" x="594.5" y="364.8765">S7</text><!--MD5=[53dabd95c96762a59fa50b084df888a2]
class S8--><rect fill="#FFFFFF" height="25.2217" id="S8" style="stroke: #808080; stroke-width: 1.5;" width="20" x="646.5" y="348"/><text fill="#000000" font-family="Consolas" font-size="13" lengthAdjust="spacingAndGlyphs" textLength="14" x="649.5" y="364.8765">S8</text><!--MD5=[ba853c3ac9916fa1154042c20aedb37b]
class S9--><rect fill="#FFFFFF" height="25.2217" id="S9" style="stroke: #808080; stroke-width: 1.5;" width="20" x="701.5" y="348"/><text fill="#000000" font-family="Consolas" font-size="13" lengthAdjust="spacingAndGlyphs" textLength="14" x="704.5" y="364.8765">S9</text><!--MD5=[e811d1078e62ab8bd877519032f5128f]
class S10--><rect fill="#FFFFFF" height="25.2217" id="S10" style="stroke: #808080; stroke-width: 1.5;" width="27" x="757" y="348"/><text fill="#000000" font-family="Consolas" font-size="13" lengthAdjust="spacingAndGlyphs" textLength="21" x="760" y="364.8765">S10</text><!--MD5=[bf4b53293c50bc155540ae5104f74484]
class S11--><rect fill="#FFFFFF" height="25.2217" id="S11" style="stroke: #808080; stroke-width: 1.5;" width="27" x="6" y="348"/><text fill="#000000" font-family="Consolas" font-size="13" lengthAdjust="spacingAndGlyphs" textLength="21" x="9" y="364.8765">S11</text><!--MD5=[0758d6cd3f2093ee088146c058079ec5]
class S12--><rect fill="#FFFFFF" height="25.2217" id="S12" style="stroke: #808080; stroke-width: 1.5;" width="27" x="68" y="348"/><text fill="#000000" font-family="Consolas" font-size="13" lengthAdjust="spacingAndGlyphs" textLength="21" x="71" y="364.8765">S12</text><!--MD5=[d1754c2f12908d934e9a863460db8e0b]
class S13--><rect fill="#FFFFFF" height="25.2217" id="S13" style="stroke: #808080; stroke-width: 1.5;" width="27" x="130" y="348"/><text fill="#000000" font-family="Consolas" font-size="13" lengthAdjust="spacingAndGlyphs" textLength="21" x="133" y="364.8765">S13</text><!--MD5=[6d1cc25a8d46d2060d1af65de60f6f57]
class S14--><rect fill="#FFFFFF" height="25.2217" id="S14" style="stroke: #808080; stroke-width: 1.5;" width="27" x="192" y="348"/><text fill="#000000" font-family="Consolas" font-size="13" lengthAdjust="spacingAndGlyphs" textLength="21" x="195" y="364.8765">S14</text><!--MD5=[926f502e143d9ea62a9e3ce25d7b4f6f]
class C1--><rect fill="#FFA07A" height="25.2217" id="C1" style="stroke: #808080; stroke-width: 1.5;" width="20" x="198.5" y="178"/><rect fill="#FFA07A" height="25.2217" style="stroke: #808080; stroke-width: 1.5;" width="20" x="198.5" y="178"/><text fill="#000000" font-family="Consolas" font-size="13" lengthAdjust="spacingAndGlyphs" textLength="14" x="201.5" y="194.8765">C1</text><!--MD5=[7a6ae922897b32380e18008d17b1b0ef]
class C2--><rect fill="#FFA07A" height="25.2217" id="C2" style="stroke: #808080; stroke-width: 1.5;" width="20" x="507.5" y="178"/><rect fill="#FFA07A" height="25.2217" style="stroke: #808080; stroke-width: 1.5;" width="20" x="507.5" y="178"/><text fill="#000000" font-family="Consolas" font-size="13" lengthAdjust="spacingAndGlyphs" textLength="14" x="510.5" y="194.8765">C2</text><!--MD5=[bea21b96b087d2a6cd694f21a9e60e60]
class C3--><rect fill="#FFA07A" height="25.2217" id="C3" style="stroke: #808080; stroke-width: 1.5;" width="20" x="312.5" y="263"/><rect fill="#FFA07A" height="25.2217" style="stroke: #808080; stroke-width: 1.5;" width="20" x="312.5" y="263"/><text fill="#000000" font-family="Consolas" font-size="13" lengthAdjust="spacingAndGlyphs" textLength="14" x="315.5" y="279.8765">C3</text><!--MD5=[5f8146be2ead7bd833ee1dd8f96efe8a]
class C4--><rect fill="#FFA07A" height="25.2217" id="C4" style="stroke: #808080; stroke-width: 1.5;" width="20" x="646.5" y="263"/><rect fill="#FFA07A" height="25.2217" style="stroke: #808080; stroke-width: 1.5;" width="20" x="646.5" y="263"/><text fill="#000000" font-family="Consolas" font-size="13" lengthAdjust="spacingAndGlyphs" textLength="14" x="649.5" y="279.8765">C4</text><!--MD5=[782f86e090d18f6284eba03faeeb5ee4]
class C5--><rect fill="#FFA07A" height="25.2217" id="C5" style="stroke: #808080; stroke-width: 1.5;" width="20" x="534.5" y="93"/><rect fill="#FFA07A" height="25.2217" style="stroke: #808080; stroke-width: 1.5;" width="20" x="534.5" y="93"/><text fill="#000000" font-family="Consolas" font-size="13" lengthAdjust="spacingAndGlyphs" textLength="14" x="537.5" y="109.8765">C5</text><!--MD5=[128709b7c1d741281b02d58f9898727f]
class C6--><rect fill="#FFA07A" height="25.2217" id="C6" style="stroke: #808080; stroke-width: 1.5;" width="20" x="646.5" y="433"/><rect fill="#FFA07A" height="25.2217" style="stroke: #808080; stroke-width: 1.5;" width="20" x="646.5" y="433"/><text fill="#000000" font-family="Consolas" font-size="13" lengthAdjust="spacingAndGlyphs" textLength="14" x="649.5" y="449.8765">C6</text><!--MD5=[a115758ba3018be6dfd372887f0f147a]
class C7--><rect fill="#FFA07A" height="25.2217" id="C7" style="stroke: #808080; stroke-width: 1.5;" width="20" x="81.5" y="178"/><rect fill="#FFA07A" height="25.2217" style="stroke: #808080; stroke-width: 1.5;" width="20" x="81.5" y="178"/><text fill="#000000" font-family="Consolas" font-size="13" lengthAdjust="spacingAndGlyphs" textLength="14" x="84.5" y="194.8765">C7</text><!--MD5=[49a4a709bcba25102acb2d54d37d089b]
class C8--><rect fill="#FFA07A" height="25.2217" id="C8" style="stroke: #808080; stroke-width: 1.5;" width="20" x="371.5" y="348"/><rect fill="#FFA07A" height="25.2217" style="stroke: #808080; stroke-width: 1.5;" width="20" x="371.5" y="348"/><text fill="#000000" font-family="Consolas" font-size="13" lengthAdjust="spacingAndGlyphs" textLength="14" x="374.5" y="364.8765">C8</text><!--MD5=[39dfc682f54ba7c67fc8427c743f2ccd]
class C9--><rect fill="#FFA07A" height="25.2217" id="C9" style="stroke: #808080; stroke-width: 1.5;" width="20" x="479.5" y="263"/><rect fill="#FFA07A" height="25.2217" style="stroke: #808080; stroke-width: 1.5;" width="20" x="479.5" y="263"/><text fill="#000000" font-family="Consolas" font-size="13" lengthAdjust="spacingAndGlyphs" textLength="14" x="482.5" y="279.8765">C9</text><!--MD5=[9d6d6b1fce0484b7c2f1bd03366d4eaf]
class C10--><rect fill="#FFA07A" height="25.2217" id="C10" style="stroke: #808080; stroke-width: 1.5;" width="27" x="195" y="263"/><rect fill="#FFA07A" height="25.2217" style="stroke: #808080; stroke-width: 1.5;" width="27" x="195" y="263"/><text fill="#000000" font-family="Consolas" font-size="13" lengthAdjust="spacingAndGlyphs" textLength="21" x="198" y="279.8765">C10</text><!--MD5=[26865081c1caece8e67ab9bd0f0be118]
class C11--><rect fill="#FFA07A" height="25.2217" id="C11" style="stroke: #808080; stroke-width: 1.5;" width="27" x="377" y="93"/><rect fill="#FFA07A" height="25.2217" style="stroke: #808080; stroke-width: 1.5;" width="27" x="377" y="93"/><text fill="#000000" font-family="Consolas" font-size="13" lengthAdjust="spacingAndGlyphs" textLength="21" x="380" y="109.8765">C11</text><!--MD5=[d1a408a1ba1b9a211eb4d240c3e40cc3]
class C12--><rect fill="#FFA07A" height="25.2217" id="C12" style="stroke: #808080; stroke-width: 1.5;" width="27" x="254" y="348"/><rect fill="#FFA07A" height="25.2217" style="stroke: #808080; stroke-width: 1.5;" width="27" x="254" y="348"/><text fill="#000000" font-family="Consolas" font-size="13" lengthAdjust="spacingAndGlyphs" textLength="21" x="257" y="364.8765">C12</text><!--MD5=[df46516c097b881d078196448f8755ac]
link P to F1--><path d="M358.96,30.7 C349,44.71 329.91,71.56 317.71,88.73 " fill="none" id="P-&gt;F1" style="stroke: #808080; stroke-width: 1.0;"/><polygon fill="#808080" points="314.77,92.87,323.2377,87.8403,317.6613,88.7907,316.7109,83.2143,314.77,92.87" style="stroke: #808080; stroke-width: 1.0;"/><!--MD5=[893f94a2c1883caf63e36050e6ab7060]
link P to F2--><path d="M372.17,27.2 C387.82,40.6 427.18,74.28 448.41,92.44 " fill="none" id="P-&gt;F2" style="stroke: #808080; stroke-width: 1.0;"/><polygon fill="#808080" points="452.4,95.86,448.1699,86.9659,448.6037,92.606,442.9635,93.0399,452.4,95.86" style="stroke: #808080; stroke-width: 1.0;"/><!--MD5=[6b86b0a01c3f17f15b13e4404e3c80e3]
link F1 to U1--><path d="M296.2,111.95 C269.13,126.26 195.92,164.96 164.33,181.66 " fill="none" id="F1-&gt;U1" style="stroke: #808080; stroke-width: 1.0;"/><polygon fill="#808080" points="159.64,184.14,169.4666,183.4788,164.0624,181.8071,165.7341,176.4029,159.64,184.14" style="stroke: #808080; stroke-width: 1.0;"/><!--MD5=[e00f584dbe54c24cd8ba59181adf0ef7]
link F1 to U2--><path d="M301.08,118.04 C294.36,132.33 282.88,156.77 275.24,173.03 " fill="none" id="F1-&gt;U2" style="stroke: #808080; stroke-width: 1.0;"/><polygon fill="#808080" points="273,177.79,280.4485,171.3464,275.1269,173.2649,273.2084,167.9433,273,177.79" style="stroke: #808080; stroke-width: 1.0;"/><!--MD5=[feb2e7bcdbea05082116d4a23c2e4dae]
link F2 to F3--><path d="M462.5,118.04 C462.5,132.21 462.5,156.35 462.5,172.6 " fill="none" id="F2-&gt;F3" style="stroke: #808080; stroke-width: 1.0;"/><polygon fill="#808080" points="462.5,177.79,466.5,168.79,462.5,172.79,458.5,168.79,462.5,177.79" style="stroke: #808080; stroke-width: 1.0;"/><!--MD5=[fb76132310dbf3c9c22dccc8ca2a8b68]
link F2 to F4--><path d="M472.65,114.16 C492.3,128.98 535.56,161.63 558.15,178.67 " fill="none" id="F2-&gt;F4" style="stroke: #808080; stroke-width: 1.0;"/><polygon fill="#808080" points="562.37,181.86,557.6045,173.2409,558.382,178.844,552.7789,179.6216,562.37,181.86" style="stroke: #808080; stroke-width: 1.0;"/><!--MD5=[20adc652263607cda064add3be25ae93]
link F3 to U3--><path d="M458.61,203.04 C453.79,217.33 445.54,241.77 440.06,258.03 " fill="none" id="F3-&gt;U3" style="stroke: #808080; stroke-width: 1.0;"/><polygon fill="#808080" points="438.45,262.79,445.117,255.5408,440.0483,258.0523,437.5367,252.9836,438.45,262.79" style="stroke: #808080; stroke-width: 1.0;"/><!--MD5=[a9e20587f3e6242a2d5b8edd330550f5]
link F3 to U4--><path d="M472.55,201.68 C487.19,216.49 514.39,244.02 530.83,260.66 " fill="none" id="F3-&gt;U4" style="stroke: #808080; stroke-width: 1.0;"/><polygon fill="#808080" points="534.36,264.24,530.8802,255.0264,530.846,260.6831,525.1892,260.6488,534.36,264.24" style="stroke: #808080; stroke-width: 1.0;"/><!--MD5=[31463d3e61392dcdc2771defc351ac08]
link F4 to U5--><path d="M576.53,203.04 C581.53,217.33 590.06,241.77 595.74,258.03 " fill="none" id="F4-&gt;U5" style="stroke: #808080; stroke-width: 1.0;"/><polygon fill="#808080" points="597.41,262.79,598.199,252.9728,595.7519,258.0729,590.6517,255.6258,597.41,262.79" style="stroke: #808080; stroke-width: 1.0;"/><!--MD5=[d92a5d3d32e01887d6b00301778016ae]
link F4 to U6--><path d="M582.95,197.74 C607.42,212.35 668.51,248.83 696.75,265.69 " fill="none" id="F4-&gt;U6" style="stroke: #808080; stroke-width: 1.0;"/><polygon fill="#808080" points="701.31,268.41,695.6308,260.3635,697.0162,265.8481,691.5317,267.2335,701.31,268.41" style="stroke: #808080; stroke-width: 1.0;"/><!--MD5=[e56603d3ff35a53f8912066b58515d42]
link U1 to U7--><path d="M140.6,203.04 C129.49,217.45 110.41,242.19 97.88,258.45 " fill="none" id="U1-&gt;U7" style="stroke: #808080; stroke-width: 1.0;"/><polygon fill="#808080" points="94.53,262.79,103.1977,258.1133,97.5868,258.8333,96.8669,253.2224,94.53,262.79" style="stroke: #808080; stroke-width: 1.0;"/><!--MD5=[1a65cfe0d7bc4e3cca2d805168537421]
link U1 to U8--><path d="M149.5,203.04 C149.5,217.21 149.5,241.35 149.5,257.6 " fill="none" id="U1-&gt;U8" style="stroke: #808080; stroke-width: 1.0;"/><polygon fill="#808080" points="149.5,262.79,153.5,253.79,149.5,257.79,145.5,253.79,149.5,262.79" style="stroke: #808080; stroke-width: 1.0;"/><!--MD5=[351f3be8a69ca9878d7a6f475e7b6071]
link U2 to S1--><path d="M267.5,203.04 C267.5,217.21 267.5,241.35 267.5,257.6 " fill="none" id="U2-&gt;S1" style="stroke: #808080; stroke-width: 1.0;"/><polygon fill="#808080" points="267.5,262.79,271.5,253.79,267.5,257.79,263.5,253.79,267.5,262.79" style="stroke: #808080; stroke-width: 1.0;"/><!--MD5=[e6b506aa406d14e88d28f07a38db53fe]
link U2 to S2--><path d="M277.65,199.16 C297.3,213.98 340.56,246.63 363.15,263.67 " fill="none" id="U2-&gt;S2" style="stroke: #808080; stroke-width: 1.0;"/><polygon fill="#808080" points="367.37,266.86,362.6045,258.2409,363.382,263.844,357.7789,264.6216,367.37,266.86" style="stroke: #808080; stroke-width: 1.0;"/><!--MD5=[0bcf264ad522dd0596406f3fa0aa6be8]
link U3 to S3--><path d="M424.14,284.46 C404.74,299.37 362.89,331.54 340.81,348.51 " fill="none" id="U3-&gt;S3" style="stroke: #808080; stroke-width: 1.0;"/><polygon fill="#808080" points="336.67,351.69,346.2417,349.3698,340.6321,348.6401,341.3618,343.0305,336.67,351.69" style="stroke: #808080; stroke-width: 1.0;"/><!--MD5=[efe4d6809861a92d2e0806b325145f0b]
link U3 to S4--><path d="M434.78,288.04 C435.12,302.21 435.7,326.35 436.09,342.6 " fill="none" id="U3-&gt;S4" style="stroke: #808080; stroke-width: 1.0;"/><polygon fill="#808080" points="436.22,347.79,440.0133,338.7009,436.1057,342.7913,432.0154,338.8838,436.22,347.79" style="stroke: #808080; stroke-width: 1.0;"/><!--MD5=[ca29a6368ab3f7c524a61d8bd21c49ea]
link U4 to S5--><path d="M537.13,288.04 C527.93,302.45 512.13,327.19 501.75,343.45 " fill="none" id="U4-&gt;S5" style="stroke: #808080; stroke-width: 1.0;"/><polygon fill="#808080" points="498.98,347.79,507.2032,342.3697,501.6773,343.5799,500.4671,338.0541,498.98,347.79" style="stroke: #808080; stroke-width: 1.0;"/><!--MD5=[a421759dae1d1f3313b890d0f59744bf]
link U4 to S6--><path d="M544.78,288.04 C545.12,302.21 545.7,326.35 546.09,342.6 " fill="none" id="U4-&gt;S6" style="stroke: #808080; stroke-width: 1.0;"/><polygon fill="#808080" points="546.22,347.79,550.0133,338.7009,546.1057,342.7913,542.0154,338.8838,546.22,347.79" style="stroke: #808080; stroke-width: 1.0;"/><!--MD5=[c558b7b805c41d0c5ac4a5b3a5cf2120]
link U5 to S7--><path d="M601.5,288.04 C601.5,302.21 601.5,326.35 601.5,342.6 " fill="none" id="U5-&gt;S7" style="stroke: #808080; stroke-width: 1.0;"/><polygon fill="#808080" points="601.5,347.79,605.5,338.79,601.5,342.79,597.5,338.79,601.5,347.79" style="stroke: #808080; stroke-width: 1.0;"/><!--MD5=[6a89887629b2c68d2d5aa0658dc0e250]
link U5 to S8--><path d="M609.15,288.04 C618.7,302.45 635.09,327.19 645.86,343.45 " fill="none" id="U5-&gt;S8" style="stroke: #808080; stroke-width: 1.0;"/><polygon fill="#808080" points="648.74,347.79,647.0913,338.0801,645.9731,343.6254,640.4278,342.5072,648.74,347.79" style="stroke: #808080; stroke-width: 1.0;"/><!--MD5=[4ee4d2900b5de946d9af8f046ca3a057]
link U6 to S9--><path d="M711.5,288.04 C711.5,302.21 711.5,326.35 711.5,342.6 " fill="none" id="U6-&gt;S9" style="stroke: #808080; stroke-width: 1.0;"/><polygon fill="#808080" points="711.5,347.79,715.5,338.79,711.5,342.79,707.5,338.79,711.5,347.79" style="stroke: #808080; stroke-width: 1.0;"/><!--MD5=[5278e2a4c695f534553649e5ef148241]
link U6 to S10--><path d="M719.7,288.04 C729.95,302.45 747.53,327.19 759.09,343.45 " fill="none" id="U6-&gt;S10" style="stroke: #808080; stroke-width: 1.0;"/><polygon fill="#808080" points="762.18,347.79,760.2326,338.1356,759.286,343.7127,753.7089,342.7661,762.18,347.79" style="stroke: #808080; stroke-width: 1.0;"/><!--MD5=[de90e9aff7628e77b2472c7a5866a29c]
link U7 to S11--><path d="M76.32,288.04 C64.76,302.58 44.85,327.61 31.94,343.86 " fill="none" id="U7-&gt;S11" style="stroke: #808080; stroke-width: 1.0;"/><polygon fill="#808080" points="28.81,347.79,37.5436,343.2376,31.923,343.8773,31.2833,338.2567,28.81,347.79" style="stroke: #808080; stroke-width: 1.0;"/><!--MD5=[019877e7d3c3952eb7cf60e963d739e0]
link U7 to S12--><path d="M84.94,288.04 C84.26,302.21 83.1,326.35 82.31,342.6 " fill="none" id="U7-&gt;S12" style="stroke: #808080; stroke-width: 1.0;"/><polygon fill="#808080" points="82.06,347.79,86.4931,338.9953,82.3033,342.7959,78.5026,338.606,82.06,347.79" style="stroke: #808080; stroke-width: 1.0;"/><!--MD5=[f7c414bf1d085ab49b3105f4282c5fa9]
link U8 to S13--><path d="M148.67,288.04 C147.64,302.21 145.9,326.35 144.72,342.6 " fill="none" id="U8-&gt;S13" style="stroke: #808080; stroke-width: 1.0;"/><polygon fill="#808080" points="144.35,347.79,148.9828,339.0988,144.7073,342.8028,141.0033,338.5272,144.35,347.79" style="stroke: #808080; stroke-width: 1.0;"/><!--MD5=[30a29a325378d810f789fd7cc139473e]
link U8 to S14--><path d="M157.29,288.04 C167.01,302.45 183.7,327.19 194.67,343.45 " fill="none" id="U8-&gt;S14" style="stroke: #808080; stroke-width: 1.0;"/><polygon fill="#808080" points="197.6,347.79,195.8974,338.0894,194.81,343.6408,189.2587,342.5534,197.6,347.79" style="stroke: #808080; stroke-width: 1.0;"/><!--MD5=[8447e86fa62f4f81a5e8729c3561f08e]
link U1 to C1--><path d="M159.64,190.5 C170.78,190.5 181.93,190.5 193.07,190.5 " fill="none" id="U1-&gt;C1" style="stroke: #808080; stroke-width: 1.0;"/><polygon fill="#808080" points="198.19,190.5,189.19,186.5,193.19,190.5,189.19,194.5,198.19,190.5" style="stroke: #808080; stroke-width: 1.0;"/><!--MD5=[5297d8ecb101c17aa3ede32927728ddd]
reverse link C1 to U2--><path d="M223.76,190.5 C234.91,190.5 246.05,190.5 257.19,190.5 " fill="none" id="C1&lt;-U2" style="stroke: #808080; stroke-width: 1.0;"/><polygon fill="#808080" points="218.64,190.5,227.64,194.5,223.64,190.5,227.64,186.5,218.64,190.5" style="stroke: #808080; stroke-width: 1.0;"/><!--MD5=[dd0ecadf3774510a6c222458f8bfd08a]
link U3 to C9--><path d="M444.81,275.5 C454.62,275.5 464.43,275.5 474.25,275.5 " fill="none" id="U3-&gt;C9" style="stroke: #808080; stroke-width: 1.0;"/><polygon fill="#808080" points="479.38,275.5,470.38,271.5,474.38,275.5,470.38,279.5,479.38,275.5" style="stroke: #808080; stroke-width: 1.0;"/><!--MD5=[c39e251e19efebd7af8b1a5cd7ed2148]
reverse link C9 to U4--><path d="M504.94,275.5 C514.75,275.5 524.56,275.5 534.38,275.5 " fill="none" id="C9&lt;-U4" style="stroke: #808080; stroke-width: 1.0;"/><polygon fill="#808080" points="499.81,275.5,508.81,279.5,504.81,275.5,508.81,271.5,499.81,275.5" style="stroke: #808080; stroke-width: 1.0;"/><!--MD5=[06e18f00371f923e101314b23d9bcbcf]
link U5 to C4--><path d="M611.81,275.5 C621.62,275.5 631.43,275.5 641.25,275.5 " fill="none" id="U5-&gt;C4" style="stroke: #808080; stroke-width: 1.0;"/><polygon fill="#808080" points="646.38,275.5,637.38,271.5,641.38,275.5,637.38,279.5,646.38,275.5" style="stroke: #808080; stroke-width: 1.0;"/><!--MD5=[1203c9ac53fc6c3c3d53f6073acc5140]
reverse link C4 to U6--><path d="M671.94,275.5 C681.75,275.5 691.56,275.5 701.38,275.5 " fill="none" id="C4&lt;-U6" style="stroke: #808080; stroke-width: 1.0;"/><polygon fill="#808080" points="666.81,275.5,675.81,279.5,671.81,275.5,675.81,271.5,666.81,275.5" style="stroke: #808080; stroke-width: 1.0;"/><!--MD5=[026577bb1f4b350c210baf558d0fc1c5]
link S1 to C3--><path d="M277.81,275.5 C287.62,275.5 297.43,275.5 307.25,275.5 " fill="none" id="S1-&gt;C3" style="stroke: #808080; stroke-width: 1.0;"/><polygon fill="#808080" points="312.38,275.5,303.38,271.5,307.38,275.5,303.38,279.5,312.38,275.5" style="stroke: #808080; stroke-width: 1.0;"/><!--MD5=[09f616d12f44670670a32a28a77d4941]
reverse link C3 to S2--><path d="M337.94,275.5 C347.75,275.5 357.56,275.5 367.38,275.5 " fill="none" id="C3&lt;-S2" style="stroke: #808080; stroke-width: 1.0;"/><polygon fill="#808080" points="332.81,275.5,341.81,279.5,337.81,275.5,341.81,271.5,332.81,275.5" style="stroke: #808080; stroke-width: 1.0;"/><!--MD5=[ad7d9b023cc9f7477b32adb6bdf5cbb5]
link S3 to C8--><path d="M336.81,360.5 C346.62,360.5 356.43,360.5 366.25,360.5 " fill="none" id="S3-&gt;C8" style="stroke: #808080; stroke-width: 1.0;"/><polygon fill="#808080" points="371.38,360.5,362.38,356.5,366.38,360.5,362.38,364.5,371.38,360.5" style="stroke: #808080; stroke-width: 1.0;"/><!--MD5=[aaf544aca58d0d050099e4eaeed9d417]
reverse link C8 to S4--><path d="M396.94,360.5 C406.75,360.5 416.56,360.5 426.38,360.5 " fill="none" id="C8&lt;-S4" style="stroke: #808080; stroke-width: 1.0;"/><polygon fill="#808080" points="391.81,360.5,400.81,364.5,396.81,360.5,400.81,356.5,391.81,360.5" style="stroke: #808080; stroke-width: 1.0;"/><!--MD5=[6132ca69bcd20424c0026389a28bed5f]
link S7 to C6--><path d="M609.15,373.04 C618.7,387.45 635.09,412.19 645.86,428.45 " fill="none" id="S7-&gt;C6" style="stroke: #808080; stroke-width: 1.0;"/><polygon fill="#808080" points="648.74,432.79,647.0913,423.0801,645.9731,428.6254,640.4278,427.5072,648.74,432.79" style="stroke: #808080; stroke-width: 1.0;"/><!--MD5=[9ce50a0bb0673462bda3943644e827b0]
link S8 to C6--><path d="M656.5,373.04 C656.5,387.21 656.5,411.35 656.5,427.6 " fill="none" id="S8-&gt;C6" style="stroke: #808080; stroke-width: 1.0;"/><polygon fill="#808080" points="656.5,432.79,660.5,423.79,656.5,427.79,652.5,423.79,656.5,432.79" style="stroke: #808080; stroke-width: 1.0;"/><!--MD5=[2a812adeee726de0ba352ca032259413]
link S9 to C6--><path d="M703.85,373.04 C694.3,387.45 677.91,412.19 667.14,428.45 " fill="none" id="S9-&gt;C6" style="stroke: #808080; stroke-width: 1.0;"/><polygon fill="#808080" points="664.26,432.79,672.5722,427.5072,667.0269,428.6254,665.9087,423.0801,664.26,432.79" style="stroke: #808080; stroke-width: 1.0;"/><!--MD5=[c2a3efb7be96cc5f181d94102208ac13]
link F3 to C2--><path d="M472.81,190.5 C482.62,190.5 492.43,190.5 502.25,190.5 " fill="none" id="F3-&gt;C2" style="stroke: #808080; stroke-width: 1.0;"/><polygon fill="#808080" points="507.38,190.5,498.38,186.5,502.38,190.5,498.38,194.5,507.38,190.5" style="stroke: #808080; stroke-width: 1.0;"/><!--MD5=[5a5b7c7c53ed441e4d2dc592b974416f]
reverse link C2 to F4--><path d="M532.94,190.5 C542.75,190.5 552.56,190.5 562.38,190.5 " fill="none" id="C2&lt;-F4" style="stroke: #808080; stroke-width: 1.0;"/><polygon fill="#808080" points="527.81,190.5,536.81,194.5,532.81,190.5,536.81,186.5,527.81,190.5" style="stroke: #808080; stroke-width: 1.0;"/><!--MD5=[162c545214879d164bab8d15d9616761]
link F1 to C11--><path d="M316.67,105.5 C335.04,105.5 353.4,105.5 371.77,105.5 " fill="none" id="F1-&gt;C11" style="stroke: #808080; stroke-width: 1.0;"/><polygon fill="#808080" points="376.95,105.5,367.95,101.5,371.95,105.5,367.95,109.5,376.95,105.5" style="stroke: #808080; stroke-width: 1.0;"/><!--MD5=[a54847842f4e407013e7574b5e2ebc85]
reverse link C11 to F2--><path d="M409.55,105.5 C423.87,105.5 438.18,105.5 452.49,105.5 " fill="none" id="C11&lt;-F2" style="stroke: #808080; stroke-width: 1.0;"/><polygon fill="#808080" points="404.28,105.5,413.28,109.5,409.28,105.5,413.28,101.5,404.28,105.5" style="stroke: #808080; stroke-width: 1.0;"/><!--MD5=[e62cddac5f97456b999b777a7e5320fa]
link F2 to C5--><path d="M472.75,105.5 C491.54,105.5 510.32,105.5 529.11,105.5 " fill="none" id="F2-&gt;C5" style="stroke: #808080; stroke-width: 1.0;"/><polygon fill="#808080" points="534.41,105.5,525.41,101.5,529.41,105.5,525.41,109.5,534.41,105.5" style="stroke: #808080; stroke-width: 1.0;"/><!--MD5=[1c43c313356692770dd7045f702aba7c]
reverse link C5 to F4--><path d="M549.99,122.78 C555.46,138.97 563.7,163.42 568.55,177.79 " fill="none" id="C5&lt;-F4" style="stroke: #808080; stroke-width: 1.0;"/><polygon fill="#808080" points="548.39,118.04,547.4767,127.8464,549.9883,122.7777,555.057,125.2892,548.39,118.04" style="stroke: #808080; stroke-width: 1.0;"/><!--MD5=[1c5e47d5b9105243f08e7d9f3f214c68]
reverse link C7 to U1--><path d="M107.2,190.5 C117.96,190.5 128.71,190.5 139.46,190.5 " fill="none" id="C7&lt;-U1" style="stroke: #808080; stroke-width: 1.0;"/><polygon fill="#808080" points="101.92,190.5,110.92,194.5,106.92,190.5,110.92,186.5,101.92,190.5" style="stroke: #808080; stroke-width: 1.0;"/><!--MD5=[aa4946e5aa6e65860962e0f2d1e6780b]
reverse link C7 to U7--><path d="M90.29,208.2 C89.12,224.4 87.38,248.54 86.35,262.79 " fill="none" id="C7&lt;-U7" style="stroke: #808080; stroke-width: 1.0;"/><polygon fill="#808080" points="90.67,203.04,86.0372,211.7312,90.3127,208.0272,94.0167,212.3028,90.67,203.04" style="stroke: #808080; stroke-width: 1.0;"/><!--MD5=[debadc5ce330890be5d9b01522c3344d]
link U2 to C10--><path d="M259.3,203.04 C249.05,217.45 231.47,242.19 219.91,258.45 " fill="none" id="U2-&gt;C10" style="stroke: #808080; stroke-width: 1.0;"/><polygon fill="#808080" points="216.82,262.79,225.2911,257.7661,219.714,258.7127,218.7674,253.1356,216.82,262.79" style="stroke: #808080; stroke-width: 1.0;"/><!--MD5=[63175ef02d827838f1d7592a7c2bfe9d]
link U8 to C10--><path d="M159.64,275.5 C169.61,275.5 179.58,275.5 189.55,275.5 " fill="none" id="U8-&gt;C10" style="stroke: #808080; stroke-width: 1.0;"/><polygon fill="#808080" points="194.76,275.5,185.76,271.5,189.76,275.5,185.76,279.5,194.76,275.5" style="stroke: #808080; stroke-width: 1.0;"/><!--MD5=[0075befb9ce22c66712f7f26b7bbfea0]
link S1 to C12--><path d="M267.5,288.04 C267.5,302.21 267.5,326.35 267.5,342.6 " fill="none" id="S1-&gt;C12" style="stroke: #808080; stroke-width: 1.0;"/><polygon fill="#808080" points="267.5,347.79,271.5,338.79,267.5,342.79,263.5,338.79,267.5,347.79" style="stroke: #808080; stroke-width: 1.0;"/><!--MD5=[b70772e7739a851aa337a3d2118abad5]
link S14 to C12--><path d="M219.06,360.5 C228.94,360.5 238.83,360.5 248.71,360.5 " fill="none" id="S14-&gt;C12" style="stroke: #808080; stroke-width: 1.0;"/><polygon fill="#808080" points="253.88,360.5,244.88,356.5,248.88,360.5,244.88,364.5,253.88,360.5" style="stroke: #808080; stroke-width: 1.0;"/><!--MD5=[613a6962d15d704f22be8920296614de]
@startuml

skinparam shadowing false


hide empty members
hide fields

hide circle


skinparam package {
style rectangle
borderColor gray
fontSize 12
}

skinparam arrow {

color gray
}

skinparam class {

borderColor gray
backgroundColor white

fontSize 13
fontName Consolas

attributeFontSize 12
attributeFontName Consolas

stereotypeFontSize 12
stereotypeFontColor gray
stereotypeFontStyle normal
stereotypeFontName Consolas
}


class P
P - -> F1
P - -> F2

F1 - -> U1
F1 - -> U2

F2 - -> F3
F2 - -> F4

F3 - -> U3
F3 - -> U4

F4 - -> U5
F4 - -> U6

U1 - -> U7
U1 - -> U8

U2 - -> S1
U2 - -> S2

U3 - -> S3
U3 - -> S4

U4 - -> S5
U4 - -> S6

U5 - -> S7
U5 - -> S8

U6 - -> S9
U6 - -> S10

U7 - -> S11
U7 - -> S12

U8 - -> S13
U8 - -> S14

class C1 #lightsalmon
class C2 #lightsalmon
class C3 #lightsalmon
class C4 #lightsalmon
class C5 #lightsalmon
class C6 #lightsalmon
class C7 #lightsalmon
class C8 #lightsalmon
class C9 #lightsalmon
class C10 #lightsalmon
class C11 #lightsalmon
class C12 #lightsalmon

U1 ->  C1
U2 -l> C1

U3 ->  C9
U4 -l> C9

U5 ->  C4
U6 -l> C4

S1 ->  C3
S2 -l> C3

S3 ->  C8
S4 -l> C8

S7 - -> C6
S8 - -> C6
S9 - -> C6

F3 ->  C2
F4 -l> C2

F1 ->  C11
F2 -l> C11

F2 ->   C5
F4 -u-> C5

U1 -l> C7
U7 -l> C7

U2 - -> C10
U8 ->  C10

S1 - -> C12
S14 -> C12

@enduml

PlantUML version 1.2019.11(Sun Sep 22 12:02:15 CEST 2019)
(EPL source distribution)
Java Runtime: OpenJDK Runtime Environment
JVM: OpenJDK 64-Bit Server VM
Java Version: 11+28
Operating System: Windows 10
Default Encoding: Cp1250
Language: hu
Country: HU
--></g></svg>