<?xml version="1.0" encoding="UTF-8" standalone="no"?><svg xmlns="http://www.w3.org/2000/svg" xmlns:xlink="http://www.w3.org/1999/xlink" contentScriptType="application/ecmascript" contentStyleType="text/css" height="554px" preserveAspectRatio="none" style="width:335px;height:554px;" version="1.1" viewBox="0 0 335 554" width="335px" zoomAndPan="magnify"><defs/><g><!--MD5=[3b33aac52bf85bcbfceea1b1d7f3c296]
class P--><rect fill="#FFFACD" height="25.2217" id="P" style="stroke: #808080; stroke-width: 1.5;" width="13" x="148.5" y="8"/><rect fill="#FFFACD" height="25.2217" style="stroke: #808080; stroke-width: 1.5;" width="13" x="148.5" y="8"/><text fill="#000000" font-family="Consolas" font-size="13" lengthAdjust="spacingAndGlyphs" textLength="7" x="151.5" y="24.8765">P</text><!--MD5=[ef539f75be16fc0b099eba24e322290f]
class F1--><rect fill="#FFFACD" height="25.2217" id="F1" style="stroke: #808080; stroke-width: 1.5;" width="20" x="61" y="93"/><rect fill="#FFFACD" height="25.2217" style="stroke: #808080; stroke-width: 1.5;" width="20" x="61" y="93"/><text fill="#000000" font-family="Consolas" font-size="13" lengthAdjust="spacingAndGlyphs" textLength="14" x="64" y="109.8765">F1</text><!--MD5=[10ed8b8b795e6751459114ef39897030]
class F2--><rect fill="#FFFACD" height="25.2217" id="F2" style="stroke: #808080; stroke-width: 1.5;" width="20" x="145" y="93"/><rect fill="#FFFACD" height="25.2217" style="stroke: #808080; stroke-width: 1.5;" width="20" x="145" y="93"/><text fill="#000000" font-family="Consolas" font-size="13" lengthAdjust="spacingAndGlyphs" textLength="14" x="148" y="109.8765">F2</text><!--MD5=[6e026031719179d81d99e078bdc161ae]
class F3--><rect fill="#FFFACD" height="25.2217" id="F3" style="stroke: #808080; stroke-width: 1.5;" width="20" x="237" y="93"/><rect fill="#FFFACD" height="25.2217" style="stroke: #808080; stroke-width: 1.5;" width="20" x="237" y="93"/><text fill="#000000" font-family="Consolas" font-size="13" lengthAdjust="spacingAndGlyphs" textLength="14" x="240" y="109.8765">F3</text><!--MD5=[ffdf888bef4f4b5cb1472b162a5fec51]
class U1--><rect fill="#FFFACD" height="25.2217" id="U1" style="stroke: #808080; stroke-width: 1.5;" width="20" x="6" y="178"/><rect fill="#FFFACD" height="25.2217" style="stroke: #808080; stroke-width: 1.5;" width="20" x="6" y="178"/><text fill="#000000" font-family="Consolas" font-size="13" lengthAdjust="spacingAndGlyphs" textLength="14" x="9" y="194.8765">U1</text><!--MD5=[ce9e6ff32917459eedc416dbc410b0e5]
class U2--><rect fill="#FFFACD" height="25.2217" id="U2" style="stroke: #808080; stroke-width: 1.5;" width="20" x="61" y="178"/><rect fill="#FFFACD" height="25.2217" style="stroke: #808080; stroke-width: 1.5;" width="20" x="61" y="178"/><text fill="#000000" font-family="Consolas" font-size="13" lengthAdjust="spacingAndGlyphs" textLength="14" x="64" y="194.8765">U2</text><!--MD5=[0cff19c4f114f165c38ae9af9a8d3719]
class U3--><rect fill="#FFFACD" height="25.2217" id="U3" style="stroke: #808080; stroke-width: 1.5;" width="20" x="117" y="178"/><rect fill="#FFFACD" height="25.2217" style="stroke: #808080; stroke-width: 1.5;" width="20" x="117" y="178"/><text fill="#000000" font-family="Consolas" font-size="13" lengthAdjust="spacingAndGlyphs" textLength="14" x="120" y="194.8765">U3</text><!--MD5=[381cb7ab0f82854dab99c8d62656afde]
class U4--><rect fill="#FFFACD" height="25.2217" id="U4" style="stroke: #808080; stroke-width: 1.5;" width="20" x="173" y="178"/><rect fill="#FFFACD" height="25.2217" style="stroke: #808080; stroke-width: 1.5;" width="20" x="173" y="178"/><text fill="#000000" font-family="Consolas" font-size="13" lengthAdjust="spacingAndGlyphs" textLength="14" x="176" y="194.8765">U4</text><!--MD5=[469d13cf6982b150940cf9288e6051dc]
class U5--><rect fill="#FFFACD" height="25.2217" id="U5" style="stroke: #808080; stroke-width: 1.5;" width="20" x="237" y="178"/><rect fill="#FFFACD" height="25.2217" style="stroke: #808080; stroke-width: 1.5;" width="20" x="237" y="178"/><text fill="#000000" font-family="Consolas" font-size="13" lengthAdjust="spacingAndGlyphs" textLength="14" x="240" y="194.8765">U5</text><!--MD5=[851a25320798db980a2fded2db98d3b3]
class U6--><rect fill="#FFFACD" height="25.2217" id="U6" style="stroke: #808080; stroke-width: 1.5;" width="20" x="295" y="178"/><rect fill="#FFFACD" height="25.2217" style="stroke: #808080; stroke-width: 1.5;" width="20" x="295" y="178"/><text fill="#000000" font-family="Consolas" font-size="13" lengthAdjust="spacingAndGlyphs" textLength="14" x="298" y="194.8765">U6</text><!--MD5=[45e7afdbce2984f9fc49df1bfeb24871]
class S1--><rect fill="#FFFFFF" height="25.2217" id="S1" style="stroke: #808080; stroke-width: 1.5;" width="20" x="6" y="263"/><text fill="#000000" font-family="Consolas" font-size="13" lengthAdjust="spacingAndGlyphs" textLength="14" x="9" y="279.8765">S1</text><!--MD5=[995ad41e55dabc4fdb316658f31e8c4f]
class S2--><rect fill="#FFFFFF" height="25.2217" id="S2" style="stroke: #808080; stroke-width: 1.5;" width="20" x="6" y="348"/><text fill="#000000" font-family="Consolas" font-size="13" lengthAdjust="spacingAndGlyphs" textLength="14" x="9" y="364.8765">S2</text><!--MD5=[192656cf42c373f0867e89ba31c24749]
class S3--><rect fill="#FFFFFF" height="25.2217" id="S3" style="stroke: #808080; stroke-width: 1.5;" width="20" x="6" y="433"/><text fill="#000000" font-family="Consolas" font-size="13" lengthAdjust="spacingAndGlyphs" textLength="14" x="9" y="449.8765">S3</text><!--MD5=[e3b705e177811b286a0ab4b18a12f6e4]
class S4--><rect fill="#FFFFFF" height="25.2217" id="S4" style="stroke: #808080; stroke-width: 1.5;" width="20" x="6" y="518"/><text fill="#000000" font-family="Consolas" font-size="13" lengthAdjust="spacingAndGlyphs" textLength="14" x="9" y="534.8765">S4</text><!--MD5=[7d96d03ecfe9342186843b77778b10f1]
class S5--><rect fill="#FFFFFF" height="25.2217" id="S5" style="stroke: #808080; stroke-width: 1.5;" width="20" x="61" y="263"/><text fill="#000000" font-family="Consolas" font-size="13" lengthAdjust="spacingAndGlyphs" textLength="14" x="64" y="279.8765">S5</text><!--MD5=[895761ed62fa31d375a3d904017297d8]
class S6--><rect fill="#FFFFFF" height="25.2217" id="S6" style="stroke: #808080; stroke-width: 1.5;" width="20" x="61" y="348"/><text fill="#000000" font-family="Consolas" font-size="13" lengthAdjust="spacingAndGlyphs" textLength="14" x="64" y="364.8765">S6</text><!--MD5=[a0e4509d7d5ecf5a7caeed9c6bbab7d2]
class S7--><rect fill="#FFFFFF" height="25.2217" id="S7" style="stroke: #808080; stroke-width: 1.5;" width="20" x="116" y="263"/><text fill="#000000" font-family="Consolas" font-size="13" lengthAdjust="spacingAndGlyphs" textLength="14" x="119" y="279.8765">S7</text><!--MD5=[53dabd95c96762a59fa50b084df888a2]
class S8--><rect fill="#FFFFFF" height="25.2217" id="S8" style="stroke: #808080; stroke-width: 1.5;" width="20" x="116" y="348"/><text fill="#000000" font-family="Consolas" font-size="13" lengthAdjust="spacingAndGlyphs" textLength="14" x="119" y="364.8765">S8</text><!--MD5=[ba853c3ac9916fa1154042c20aedb37b]
class S9--><rect fill="#FFFFFF" height="25.2217" id="S9" style="stroke: #808080; stroke-width: 1.5;" width="20" x="116" y="433"/><text fill="#000000" font-family="Consolas" font-size="13" lengthAdjust="spacingAndGlyphs" textLength="14" x="119" y="449.8765">S9</text><!--MD5=[e811d1078e62ab8bd877519032f5128f]
class S10--><rect fill="#FFFFFF" height="25.2217" id="S10" style="stroke: #808080; stroke-width: 1.5;" width="27" x="171.5" y="263"/><text fill="#000000" font-family="Consolas" font-size="13" lengthAdjust="spacingAndGlyphs" textLength="21" x="174.5" y="279.8765">S10</text><!--MD5=[bf4b53293c50bc155540ae5104f74484]
class S11--><rect fill="#FFFFFF" height="25.2217" id="S11" style="stroke: #808080; stroke-width: 1.5;" width="27" x="171.5" y="348"/><text fill="#000000" font-family="Consolas" font-size="13" lengthAdjust="spacingAndGlyphs" textLength="21" x="174.5" y="364.8765">S11</text><!--MD5=[0758d6cd3f2093ee088146c058079ec5]
class S12--><rect fill="#FFFFFF" height="25.2217" id="S12" style="stroke: #808080; stroke-width: 1.5;" width="27" x="171.5" y="433"/><text fill="#000000" font-family="Consolas" font-size="13" lengthAdjust="spacingAndGlyphs" textLength="21" x="174.5" y="449.8765">S12</text><!--MD5=[d1754c2f12908d934e9a863460db8e0b]
class S13--><rect fill="#FFFFFF" height="25.2217" id="S13" style="stroke: #808080; stroke-width: 1.5;" width="27" x="233.5" y="263"/><text fill="#000000" font-family="Consolas" font-size="13" lengthAdjust="spacingAndGlyphs" textLength="21" x="236.5" y="279.8765">S13</text><!--MD5=[6d1cc25a8d46d2060d1af65de60f6f57]
class S14--><rect fill="#FFFFFF" height="25.2217" id="S14" style="stroke: #808080; stroke-width: 1.5;" width="27" x="233.5" y="348"/><text fill="#000000" font-family="Consolas" font-size="13" lengthAdjust="spacingAndGlyphs" textLength="21" x="236.5" y="364.8765">S14</text><!--MD5=[8d8cbd64fb90733ed198b400e2704017]
class S15--><rect fill="#FFFFFF" height="25.2217" id="S15" style="stroke: #808080; stroke-width: 1.5;" width="27" x="233.5" y="433"/><text fill="#000000" font-family="Consolas" font-size="13" lengthAdjust="spacingAndGlyphs" textLength="21" x="236.5" y="449.8765">S15</text><!--MD5=[a62d487d9927bd0ef9d0ec61b4220b05]
class S16--><rect fill="#FFFFFF" height="25.2217" id="S16" style="stroke: #808080; stroke-width: 1.5;" width="27" x="233.5" y="518"/><text fill="#000000" font-family="Consolas" font-size="13" lengthAdjust="spacingAndGlyphs" textLength="21" x="236.5" y="534.8765">S16</text><!--MD5=[777bdcec5dff8d9fdb5efe630279c657]
class S17--><rect fill="#FFFFFF" height="25.2217" id="S17" style="stroke: #808080; stroke-width: 1.5;" width="27" x="295.5" y="263"/><text fill="#000000" font-family="Consolas" font-size="13" lengthAdjust="spacingAndGlyphs" textLength="21" x="298.5" y="279.8765">S17</text><!--MD5=[91397739112183010ceca86fd3e97ab3]
class S18--><rect fill="#FFFFFF" height="25.2217" id="S18" style="stroke: #808080; stroke-width: 1.5;" width="27" x="295.5" y="348"/><text fill="#000000" font-family="Consolas" font-size="13" lengthAdjust="spacingAndGlyphs" textLength="21" x="298.5" y="364.8765">S18</text><!--MD5=[df46516c097b881d078196448f8755ac]
link P to F1--><path d="M148.41,28.01 C134.82,41.44 103.42,72.47 85.06,90.61 " fill="none" id="P-&gt;F1" style="stroke: #808080; stroke-width: 1.0;"/><polygon fill="#808080" points="81.13,94.49,90.3436,91.0102,84.6869,90.976,84.7212,85.3192,81.13,94.49" style="stroke: #808080; stroke-width: 1.0;"/><!--MD5=[893f94a2c1883caf63e36050e6ab7060]
link P to F2--><path d="M155,33.04 C155,47.21 155,71.35 155,87.6 " fill="none" id="P-&gt;F2" style="stroke: #808080; stroke-width: 1.0;"/><polygon fill="#808080" points="155,92.79,159,83.79,155,87.79,151,83.79,155,92.79" style="stroke: #808080; stroke-width: 1.0;"/><!--MD5=[67394c36b3f508db57802220e8a3b7a2]
link P to F3--><path d="M161.62,27.47 C176.53,40.92 213.01,73.84 233.13,91.99 " fill="none" id="P-&gt;F3" style="stroke: #808080; stroke-width: 1.0;"/><polygon fill="#808080" points="236.92,95.41,232.9062,86.4161,233.2035,92.0652,227.5545,92.3625,236.92,95.41" style="stroke: #808080; stroke-width: 1.0;"/><!--MD5=[6b86b0a01c3f17f15b13e4404e3c80e3]
link F1 to U1--><path d="M63.35,118.04 C53.8,132.45 37.41,157.19 26.64,173.45 " fill="none" id="F1-&gt;U1" style="stroke: #808080; stroke-width: 1.0;"/><polygon fill="#808080" points="23.76,177.79,32.0722,172.5072,26.5269,173.6254,25.4087,168.0801,23.76,177.79" style="stroke: #808080; stroke-width: 1.0;"/><!--MD5=[e00f584dbe54c24cd8ba59181adf0ef7]
link F1 to U2--><path d="M71,118.04 C71,132.21 71,156.35 71,172.6 " fill="none" id="F1-&gt;U2" style="stroke: #808080; stroke-width: 1.0;"/><polygon fill="#808080" points="71,177.79,75,168.79,71,172.79,67,168.79,71,177.79" style="stroke: #808080; stroke-width: 1.0;"/><!--MD5=[723419032dc9ea401cdfb149fbb7df1a]
link F2 to U3--><path d="M151.11,118.04 C146.29,132.33 138.04,156.77 132.56,173.03 " fill="none" id="F2-&gt;U3" style="stroke: #808080; stroke-width: 1.0;"/><polygon fill="#808080" points="130.95,177.79,137.617,170.5408,132.5483,173.0523,130.0367,167.9836,130.95,177.79" style="stroke: #808080; stroke-width: 1.0;"/><!--MD5=[b1a39ff175161afa6cacb209529351ef]
link F2 to U4--><path d="M158.89,118.04 C163.71,132.33 171.96,156.77 177.44,173.03 " fill="none" id="F2-&gt;U4" style="stroke: #808080; stroke-width: 1.0;"/><polygon fill="#808080" points="179.05,177.79,179.9633,167.9836,177.4517,173.0523,172.383,170.5408,179.05,177.79" style="stroke: #808080; stroke-width: 1.0;"/><!--MD5=[9de3c6e0e30479e44b9478fdb3d01ab4]
link F3 to U5--><path d="M247,118.04 C247,132.21 247,156.35 247,172.6 " fill="none" id="F3-&gt;U5" style="stroke: #808080; stroke-width: 1.0;"/><polygon fill="#808080" points="247,177.79,251,168.79,247,172.79,243,168.79,247,177.79" style="stroke: #808080; stroke-width: 1.0;"/><!--MD5=[70f14905bb91b0865ff9175b1958c905]
link F3 to U6--><path d="M255.06,118.04 C265.14,132.45 282.42,157.19 293.78,173.45 " fill="none" id="F3-&gt;U6" style="stroke: #808080; stroke-width: 1.0;"/><polygon fill="#808080" points="296.82,177.79,294.9561,168.1191,293.9613,173.6878,288.3926,172.693,296.82,177.79" style="stroke: #808080; stroke-width: 1.0;"/><!--MD5=[38e5ddd6d36cff7a0294e7afff04363e]
link U1 to S1--><path d="M16,203.04 C16,217.21 16,241.35 16,257.6 " fill="none" id="U1-&gt;S1" style="stroke: #808080; stroke-width: 1.0;"/><polygon fill="#808080" points="16,262.79,20,253.79,16,257.79,12,253.79,16,262.79" style="stroke: #808080; stroke-width: 1.0;"/><!--MD5=[15cb110786dd224ca6a510a3d2a24e20]
link S1 to S2--><path d="M16,288.04 C16,302.21 16,326.35 16,342.6 " fill="none" id="S1-&gt;S2" style="stroke: #808080; stroke-width: 1.0;"/><polygon fill="#808080" points="16,347.79,20,338.79,16,342.79,12,338.79,16,347.79" style="stroke: #808080; stroke-width: 1.0;"/><!--MD5=[8eac89d31ced3c9003fbd6a8a005c745]
link S2 to S3--><path d="M16,373.04 C16,387.21 16,411.35 16,427.6 " fill="none" id="S2-&gt;S3" style="stroke: #808080; stroke-width: 1.0;"/><polygon fill="#808080" points="16,432.79,20,423.79,16,427.79,12,423.79,16,432.79" style="stroke: #808080; stroke-width: 1.0;"/><!--MD5=[82e284a09e4ebade00512bdc77bff32c]
link S3 to S4--><path d="M16,458.04 C16,472.21 16,496.35 16,512.6 " fill="none" id="S3-&gt;S4" style="stroke: #808080; stroke-width: 1.0;"/><polygon fill="#808080" points="16,517.79,20,508.79,16,512.79,12,508.79,16,517.79" style="stroke: #808080; stroke-width: 1.0;"/><!--MD5=[94454319a1fbad9b6ee497c1eebe191c]
link U2 to S5--><path d="M71,203.04 C71,217.21 71,241.35 71,257.6 " fill="none" id="U2-&gt;S5" style="stroke: #808080; stroke-width: 1.0;"/><polygon fill="#808080" points="71,262.79,75,253.79,71,257.79,67,253.79,71,262.79" style="stroke: #808080; stroke-width: 1.0;"/><!--MD5=[9a1decb07fdca87444298db88ae68821]
link S5 to S6--><path d="M71,288.04 C71,302.21 71,326.35 71,342.6 " fill="none" id="S5-&gt;S6" style="stroke: #808080; stroke-width: 1.0;"/><polygon fill="#808080" points="71,347.79,75,338.79,71,342.79,67,338.79,71,347.79" style="stroke: #808080; stroke-width: 1.0;"/><!--MD5=[3670d5d888adde1d0fcbc68dbb7b3d24]
link U3 to S7--><path d="M126.86,203.04 C126.69,217.21 126.4,241.35 126.2,257.6 " fill="none" id="U3-&gt;S7" style="stroke: #808080; stroke-width: 1.0;"/><polygon fill="#808080" points="126.14,262.79,130.2426,253.8363,126.1971,257.7903,122.2431,253.7449,126.14,262.79" style="stroke: #808080; stroke-width: 1.0;"/><!--MD5=[fbfbf6b1ae3440055b63d0703a928e77]
link S7 to S8--><path d="M126,288.04 C126,302.21 126,326.35 126,342.6 " fill="none" id="S7-&gt;S8" style="stroke: #808080; stroke-width: 1.0;"/><polygon fill="#808080" points="126,347.79,130,338.79,126,342.79,122,338.79,126,347.79" style="stroke: #808080; stroke-width: 1.0;"/><!--MD5=[8896293c0c1c61c30c7ac9fb2ca1cfa1]
link S8 to S9--><path d="M126,373.04 C126,387.21 126,411.35 126,427.6 " fill="none" id="S8-&gt;S9" style="stroke: #808080; stroke-width: 1.0;"/><polygon fill="#808080" points="126,432.79,130,423.79,126,427.79,122,423.79,126,432.79" style="stroke: #808080; stroke-width: 1.0;"/><!--MD5=[a4f05caffea9d34ebd7a3f282f939eed]
link U4 to S10--><path d="M183.28,203.04 C183.62,217.21 184.2,241.35 184.59,257.6 " fill="none" id="U4-&gt;S10" style="stroke: #808080; stroke-width: 1.0;"/><polygon fill="#808080" points="184.72,262.79,188.5133,253.7009,184.6057,257.7913,180.5154,253.8838,184.72,262.79" style="stroke: #808080; stroke-width: 1.0;"/><!--MD5=[d0c5e69c1aa55789e4c53b86f31fca05]
link S10 to S11--><path d="M185,288.04 C185,302.21 185,326.35 185,342.6 " fill="none" id="S10-&gt;S11" style="stroke: #808080; stroke-width: 1.0;"/><polygon fill="#808080" points="185,347.79,189,338.79,185,342.79,181,338.79,185,347.79" style="stroke: #808080; stroke-width: 1.0;"/><!--MD5=[5138655186ae78a23d47db6756cdb1f5]
link S11 to S12--><path d="M185,373.04 C185,387.21 185,411.35 185,427.6 " fill="none" id="S11-&gt;S12" style="stroke: #808080; stroke-width: 1.0;"/><polygon fill="#808080" points="185,432.79,189,423.79,185,427.79,181,423.79,185,432.79" style="stroke: #808080; stroke-width: 1.0;"/><!--MD5=[bf30236c27950b5722862b3824ae5a06]
link U5 to S13--><path d="M247,203.04 C247,217.21 247,241.35 247,257.6 " fill="none" id="U5-&gt;S13" style="stroke: #808080; stroke-width: 1.0;"/><polygon fill="#808080" points="247,262.79,251,253.79,247,257.79,243,253.79,247,262.79" style="stroke: #808080; stroke-width: 1.0;"/><!--MD5=[4cd843f84f1e822a10a0d423180b811c]
link S13 to S14--><path d="M247,288.04 C247,302.21 247,326.35 247,342.6 " fill="none" id="S13-&gt;S14" style="stroke: #808080; stroke-width: 1.0;"/><polygon fill="#808080" points="247,347.79,251,338.79,247,342.79,243,338.79,247,347.79" style="stroke: #808080; stroke-width: 1.0;"/><!--MD5=[7ca82cb5c6e6a7e8906d27314f2c3db7]
link S14 to S15--><path d="M247,373.04 C247,387.21 247,411.35 247,427.6 " fill="none" id="S14-&gt;S15" style="stroke: #808080; stroke-width: 1.0;"/><polygon fill="#808080" points="247,432.79,251,423.79,247,427.79,243,423.79,247,432.79" style="stroke: #808080; stroke-width: 1.0;"/><!--MD5=[ad28e6fc5ebc9bb953803ec65b19f439]
link S15 to S16--><path d="M247,458.04 C247,472.21 247,496.35 247,512.6 " fill="none" id="S15-&gt;S16" style="stroke: #808080; stroke-width: 1.0;"/><polygon fill="#808080" points="247,517.79,251,508.79,247,512.79,243,508.79,247,517.79" style="stroke: #808080; stroke-width: 1.0;"/><!--MD5=[468fb2e65fd856c0e878a76dd0bd5920]
link U6 to S17--><path d="M305.56,203.04 C306.24,217.21 307.4,241.35 308.19,257.6 " fill="none" id="U6-&gt;S17" style="stroke: #808080; stroke-width: 1.0;"/><polygon fill="#808080" points="308.44,262.79,311.9974,253.606,308.1967,257.7959,304.0069,253.9953,308.44,262.79" style="stroke: #808080; stroke-width: 1.0;"/><!--MD5=[24d6486fc500a86d9b6b0b06563658ef]
link S17 to S18--><path d="M309,288.04 C309,302.21 309,326.35 309,342.6 " fill="none" id="S17-&gt;S18" style="stroke: #808080; stroke-width: 1.0;"/><polygon fill="#808080" points="309,347.79,313,338.79,309,342.79,305,338.79,309,347.79" style="stroke: #808080; stroke-width: 1.0;"/><!--MD5=[1659157ddda81dd2818c5f204419e687]
@startuml

skinparam shadowing false


hide empty members
hide fields

hide circle


skinparam package {
style rectangle
borderColor gray
fontSize 12
borderThickness 1
}

skinparam arrow {

color gray
}

skinparam class {

borderColor gray
backgroundColor white

fontSize 13
fontName Consolas

attributeFontSize 12
attributeFontName Consolas

stereotypeFontSize 12
stereotypeFontColor gray
stereotypeFontStyle normal
stereotypeFontName Consolas
}


class P  #lemonchiffon
class F1 #lemonchiffon
class F2 #lemonchiffon
class F3 #lemonchiffon
class U1 #lemonchiffon
class U2 #lemonchiffon
class U3 #lemonchiffon
class U4 #lemonchiffon
class U5 #lemonchiffon
class U6 #lemonchiffon

P - -> F1
P - -> F2
P - -> F3

F1 - -> U1
F1 - -> U2

F2 - -> U3
F2 - -> U4

F3 - -> U5
F3 - -> U6

U1 - -> S1
S1 - -> S2
S2 - -> S3
S3 - -> S4

U2 - -> S5
S5 - -> S6

U3 - -> S7
S7 - -> S8
S8 - -> S9

U4  - -> S10
S10 - -> S11
S11 - -> S12

U5  - -> S13
S13 - -> S14
S14 - -> S15
S15 - -> S16

U6  - -> S17
S17 - -> S18

@enduml

PlantUML version 1.2019.11(Sun Sep 22 12:02:15 CEST 2019)
(EPL source distribution)
Java Runtime: OpenJDK Runtime Environment
JVM: OpenJDK 64-Bit Server VM
Java Version: 11+28
Operating System: Windows 10
Default Encoding: Cp1250
Language: hu
Country: HU
--></g></svg>