<?xml version="1.0" encoding="UTF-8" standalone="no"?><svg xmlns="http://www.w3.org/2000/svg" xmlns:xlink="http://www.w3.org/1999/xlink" contentScriptType="application/ecmascript" contentStyleType="text/css" height="384px" preserveAspectRatio="none" style="width:678px;height:384px;" version="1.1" viewBox="0 0 678 384" width="678px" zoomAndPan="magnify"><defs/><g><!--MD5=[3b33aac52bf85bcbfceea1b1d7f3c296]
class P--><rect fill="#FFFFFF" height="25.2217" id="P" style="stroke: #808080; stroke-width: 1.5;" width="13" x="280" y="8"/><text fill="#000000" font-family="Consolas" font-size="13" lengthAdjust="spacingAndGlyphs" textLength="7" x="283" y="24.8765">P</text><!--MD5=[ef539f75be16fc0b099eba24e322290f]
class F1--><rect fill="#FFFFFF" height="25.2217" id="F1" style="stroke: #808080; stroke-width: 1.5;" width="20" x="221.5" y="93"/><text fill="#000000" font-family="Consolas" font-size="13" lengthAdjust="spacingAndGlyphs" textLength="14" x="224.5" y="109.8765">F1</text><!--MD5=[10ed8b8b795e6751459114ef39897030]
class F2--><rect fill="#FFFFFF" height="25.2217" id="F2" style="stroke: #808080; stroke-width: 1.5;" width="20" x="336.5" y="93"/><text fill="#000000" font-family="Consolas" font-size="13" lengthAdjust="spacingAndGlyphs" textLength="14" x="339.5" y="109.8765">F2</text><!--MD5=[ffdf888bef4f4b5cb1472b162a5fec51]
class U1--><rect fill="#FFFFFF" height="25.2217" id="U1" style="stroke: #808080; stroke-width: 1.5;" width="20" x="136.5" y="178"/><text fill="#000000" font-family="Consolas" font-size="13" lengthAdjust="spacingAndGlyphs" textLength="14" x="139.5" y="194.8765">U1</text><!--MD5=[ce9e6ff32917459eedc416dbc410b0e5]
class U2--><rect fill="#FFFFFF" height="25.2217" id="U2" style="stroke: #808080; stroke-width: 1.5;" width="20" x="221.5" y="178"/><text fill="#000000" font-family="Consolas" font-size="13" lengthAdjust="spacingAndGlyphs" textLength="14" x="224.5" y="194.8765">U2</text><!--MD5=[6e026031719179d81d99e078bdc161ae]
class F3--><rect fill="#FFFFFF" height="25.2217" id="F3" style="stroke: #808080; stroke-width: 1.5;" width="20" x="336.5" y="178"/><text fill="#000000" font-family="Consolas" font-size="13" lengthAdjust="spacingAndGlyphs" textLength="14" x="339.5" y="194.8765">F3</text><!--MD5=[757a03ebce0b8ca0fdf4418b407190cb]
class F4--><rect fill="#FFFFFF" height="25.2217" id="F4" style="stroke: #808080; stroke-width: 1.5;" width="20" x="501.5" y="178"/><text fill="#000000" font-family="Consolas" font-size="13" lengthAdjust="spacingAndGlyphs" textLength="14" x="504.5" y="194.8765">F4</text><!--MD5=[0cff19c4f114f165c38ae9af9a8d3719]
class U3--><rect fill="#FFFFFF" height="25.2217" id="U3" style="stroke: #808080; stroke-width: 1.5;" width="20" x="309.5" y="263"/><text fill="#000000" font-family="Consolas" font-size="13" lengthAdjust="spacingAndGlyphs" textLength="14" x="312.5" y="279.8765">U3</text><!--MD5=[381cb7ab0f82854dab99c8d62656afde]
class U4--><rect fill="#FFFFFF" height="25.2217" id="U4" style="stroke: #808080; stroke-width: 1.5;" width="20" x="364.5" y="263"/><text fill="#000000" font-family="Consolas" font-size="13" lengthAdjust="spacingAndGlyphs" textLength="14" x="367.5" y="279.8765">U4</text><!--MD5=[469d13cf6982b150940cf9288e6051dc]
class U5--><rect fill="#FFFFFF" height="25.2217" id="U5" style="stroke: #808080; stroke-width: 1.5;" width="20" x="501.5" y="263"/><text fill="#000000" font-family="Consolas" font-size="13" lengthAdjust="spacingAndGlyphs" textLength="14" x="504.5" y="279.8765">U5</text><!--MD5=[851a25320798db980a2fded2db98d3b3]
class U6--><rect fill="#FFFFFF" height="25.2217" id="U6" style="stroke: #808080; stroke-width: 1.5;" width="20" x="584.5" y="263"/><text fill="#000000" font-family="Consolas" font-size="13" lengthAdjust="spacingAndGlyphs" textLength="14" x="587.5" y="279.8765">U6</text><!--MD5=[e9c1767e4971cc35c3a4e44b9a020f6f]
class U7--><rect fill="#FFFFFF" height="25.2217" id="U7" style="stroke: #808080; stroke-width: 1.5;" width="20" x="71.5" y="263"/><text fill="#000000" font-family="Consolas" font-size="13" lengthAdjust="spacingAndGlyphs" textLength="14" x="74.5" y="279.8765">U7</text><!--MD5=[7fe1b8b19c510630f41a0f04d43ff9ef]
class U8--><rect fill="#FFFFFF" height="25.2217" id="U8" style="stroke: #808080; stroke-width: 1.5;" width="20" x="136.5" y="263"/><text fill="#000000" font-family="Consolas" font-size="13" lengthAdjust="spacingAndGlyphs" textLength="14" x="139.5" y="279.8765">U8</text><!--MD5=[45e7afdbce2984f9fc49df1bfeb24871]
class S1--><rect fill="#FFFFFF" height="25.2217" id="S1" style="stroke: #808080; stroke-width: 1.5;" width="20" x="194.5" y="263"/><text fill="#000000" font-family="Consolas" font-size="13" lengthAdjust="spacingAndGlyphs" textLength="14" x="197.5" y="279.8765">S1</text><!--MD5=[995ad41e55dabc4fdb316658f31e8c4f]
class S2--><rect fill="#FFFFFF" height="25.2217" id="S2" style="stroke: #808080; stroke-width: 1.5;" width="20" x="249.5" y="263"/><text fill="#000000" font-family="Consolas" font-size="13" lengthAdjust="spacingAndGlyphs" textLength="14" x="252.5" y="279.8765">S2</text><!--MD5=[192656cf42c373f0867e89ba31c24749]
class S3--><rect fill="#FFFFFF" height="25.2217" id="S3" style="stroke: #808080; stroke-width: 1.5;" width="20" x="254.5" y="348"/><text fill="#000000" font-family="Consolas" font-size="13" lengthAdjust="spacingAndGlyphs" textLength="14" x="257.5" y="364.8765">S3</text><!--MD5=[e3b705e177811b286a0ab4b18a12f6e4]
class S4--><rect fill="#FFFFFF" height="25.2217" id="S4" style="stroke: #808080; stroke-width: 1.5;" width="20" x="309.5" y="348"/><text fill="#000000" font-family="Consolas" font-size="13" lengthAdjust="spacingAndGlyphs" textLength="14" x="312.5" y="364.8765">S4</text><!--MD5=[7d96d03ecfe9342186843b77778b10f1]
class S5--><rect fill="#FFFFFF" height="25.2217" id="S5" style="stroke: #808080; stroke-width: 1.5;" width="20" x="364.5" y="348"/><text fill="#000000" font-family="Consolas" font-size="13" lengthAdjust="spacingAndGlyphs" textLength="14" x="367.5" y="364.8765">S5</text><!--MD5=[895761ed62fa31d375a3d904017297d8]
class S6--><rect fill="#FFFFFF" height="25.2217" id="S6" style="stroke: #808080; stroke-width: 1.5;" width="20" x="419.5" y="348"/><text fill="#000000" font-family="Consolas" font-size="13" lengthAdjust="spacingAndGlyphs" textLength="14" x="422.5" y="364.8765">S6</text><!--MD5=[a0e4509d7d5ecf5a7caeed9c6bbab7d2]
class S7--><rect fill="#FFFFFF" height="25.2217" id="S7" style="stroke: #808080; stroke-width: 1.5;" width="20" x="474.5" y="348"/><text fill="#000000" font-family="Consolas" font-size="13" lengthAdjust="spacingAndGlyphs" textLength="14" x="477.5" y="364.8765">S7</text><!--MD5=[53dabd95c96762a59fa50b084df888a2]
class S8--><rect fill="#FFFFFF" height="25.2217" id="S8" style="stroke: #808080; stroke-width: 1.5;" width="20" x="529.5" y="348"/><text fill="#000000" font-family="Consolas" font-size="13" lengthAdjust="spacingAndGlyphs" textLength="14" x="532.5" y="364.8765">S8</text><!--MD5=[ba853c3ac9916fa1154042c20aedb37b]
class S9--><rect fill="#FFFFFF" height="25.2217" id="S9" style="stroke: #808080; stroke-width: 1.5;" width="20" x="584.5" y="348"/><text fill="#000000" font-family="Consolas" font-size="13" lengthAdjust="spacingAndGlyphs" textLength="14" x="587.5" y="364.8765">S9</text><!--MD5=[e811d1078e62ab8bd877519032f5128f]
class S10--><rect fill="#FFFFFF" height="25.2217" id="S10" style="stroke: #808080; stroke-width: 1.5;" width="27" x="640" y="348"/><text fill="#000000" font-family="Consolas" font-size="13" lengthAdjust="spacingAndGlyphs" textLength="21" x="643" y="364.8765">S10</text><!--MD5=[bf4b53293c50bc155540ae5104f74484]
class S11--><rect fill="#FFFFFF" height="25.2217" id="S11" style="stroke: #808080; stroke-width: 1.5;" width="27" x="6" y="348"/><text fill="#000000" font-family="Consolas" font-size="13" lengthAdjust="spacingAndGlyphs" textLength="21" x="9" y="364.8765">S11</text><!--MD5=[0758d6cd3f2093ee088146c058079ec5]
class S12--><rect fill="#FFFFFF" height="25.2217" id="S12" style="stroke: #808080; stroke-width: 1.5;" width="27" x="68" y="348"/><text fill="#000000" font-family="Consolas" font-size="13" lengthAdjust="spacingAndGlyphs" textLength="21" x="71" y="364.8765">S12</text><!--MD5=[d1754c2f12908d934e9a863460db8e0b]
class S13--><rect fill="#FFFFFF" height="25.2217" id="S13" style="stroke: #808080; stroke-width: 1.5;" width="27" x="130" y="348"/><text fill="#000000" font-family="Consolas" font-size="13" lengthAdjust="spacingAndGlyphs" textLength="21" x="133" y="364.8765">S13</text><!--MD5=[6d1cc25a8d46d2060d1af65de60f6f57]
class S14--><rect fill="#FFFFFF" height="25.2217" id="S14" style="stroke: #808080; stroke-width: 1.5;" width="27" x="192" y="348"/><text fill="#000000" font-family="Consolas" font-size="13" lengthAdjust="spacingAndGlyphs" textLength="21" x="195" y="364.8765">S14</text><!--MD5=[df46516c097b881d078196448f8755ac]
link P to F1--><path d="M279.97,31.35 C270.66,45.4 253.45,71.37 242.24,88.29 " fill="none" id="P-&gt;F1" style="stroke: #808080; stroke-width: 1.0;"/><polygon fill="#808080" points="239.25,92.8,247.5705,87.5303,242.0235,88.6397,240.9141,83.0927,239.25,92.8" style="stroke: #808080; stroke-width: 1.0;"/><!--MD5=[893f94a2c1883caf63e36050e6ab7060]
link P to F2--><path d="M293.15,30.7 C303.28,44.71 322.69,71.56 335.1,88.73 " fill="none" id="P-&gt;F2" style="stroke: #808080; stroke-width: 1.0;"/><polygon fill="#808080" points="338.09,92.87,336.0658,83.2314,335.1636,88.8159,329.5791,87.9137,338.09,92.87" style="stroke: #808080; stroke-width: 1.0;"/><!--MD5=[6b86b0a01c3f17f15b13e4404e3c80e3]
link F1 to U1--><path d="M221.42,116.35 C206.21,131.2 177.36,159.36 160.24,176.08 " fill="none" id="F1-&gt;U1" style="stroke: #808080; stroke-width: 1.0;"/><polygon fill="#808080" points="156.57,179.67,165.8046,176.2464,160.1482,176.1777,160.2169,170.5212,156.57,179.67" style="stroke: #808080; stroke-width: 1.0;"/><!--MD5=[e00f584dbe54c24cd8ba59181adf0ef7]
link F1 to U2--><path d="M231.5,118.04 C231.5,132.21 231.5,156.35 231.5,172.6 " fill="none" id="F1-&gt;U2" style="stroke: #808080; stroke-width: 1.0;"/><polygon fill="#808080" points="231.5,177.79,235.5,168.79,231.5,172.79,227.5,168.79,231.5,177.79" style="stroke: #808080; stroke-width: 1.0;"/><!--MD5=[feb2e7bcdbea05082116d4a23c2e4dae]
link F2 to F3--><path d="M346.5,118.04 C346.5,132.21 346.5,156.35 346.5,172.6 " fill="none" id="F2-&gt;F3" style="stroke: #808080; stroke-width: 1.0;"/><polygon fill="#808080" points="346.5,177.79,350.5,168.79,346.5,172.79,342.5,168.79,346.5,177.79" style="stroke: #808080; stroke-width: 1.0;"/><!--MD5=[fb76132310dbf3c9c22dccc8ca2a8b68]
link F2 to F4--><path d="M356.82,111.69 C385.06,125.9 463.7,165.45 496.66,182.04 " fill="none" id="F2-&gt;F4" style="stroke: #808080; stroke-width: 1.0;"/><polygon fill="#808080" points="501.18,184.31,494.9287,176.6994,496.7107,182.0682,491.3419,183.8502,501.18,184.31" style="stroke: #808080; stroke-width: 1.0;"/><!--MD5=[20adc652263607cda064add3be25ae93]
link F3 to U3--><path d="M342.75,203.04 C338.1,217.33 330.15,241.77 324.86,258.03 " fill="none" id="F3-&gt;U3" style="stroke: #808080; stroke-width: 1.0;"/><polygon fill="#808080" points="323.31,262.79,329.9113,255.4809,324.8654,258.0381,322.3082,252.9922,323.31,262.79" style="stroke: #808080; stroke-width: 1.0;"/><!--MD5=[a9e20587f3e6242a2d5b8edd330550f5]
link F3 to U4--><path d="M350.39,203.04 C355.21,217.33 363.46,241.77 368.94,258.03 " fill="none" id="F3-&gt;U4" style="stroke: #808080; stroke-width: 1.0;"/><polygon fill="#808080" points="370.55,262.79,371.4633,252.9836,368.9517,258.0523,363.883,255.5408,370.55,262.79" style="stroke: #808080; stroke-width: 1.0;"/><!--MD5=[31463d3e61392dcdc2771defc351ac08]
link F4 to U5--><path d="M511.5,203.04 C511.5,217.21 511.5,241.35 511.5,257.6 " fill="none" id="F4-&gt;U5" style="stroke: #808080; stroke-width: 1.0;"/><polygon fill="#808080" points="511.5,262.79,515.5,253.79,511.5,257.79,507.5,253.79,511.5,262.79" style="stroke: #808080; stroke-width: 1.0;"/><!--MD5=[d92a5d3d32e01887d6b00301778016ae]
link F4 to U6--><path d="M521.68,201.68 C536.57,216.57 564.32,244.32 580.93,260.93 " fill="none" id="F4-&gt;U6" style="stroke: #808080; stroke-width: 1.0;"/><polygon fill="#808080" points="584.5,264.5,580.9645,255.3076,580.9645,260.9645,575.3076,260.9645,584.5,264.5" style="stroke: #808080; stroke-width: 1.0;"/><!--MD5=[e56603d3ff35a53f8912066b58515d42]
link U1 to U7--><path d="M137.46,203.04 C126.17,217.45 106.8,242.19 94.07,258.45 " fill="none" id="U1-&gt;U7" style="stroke: #808080; stroke-width: 1.0;"/><polygon fill="#808080" points="90.67,262.79,99.3749,258.183,93.7585,258.8579,93.0836,253.2415,90.67,262.79" style="stroke: #808080; stroke-width: 1.0;"/><!--MD5=[1a65cfe0d7bc4e3cca2d805168537421]
link U1 to U8--><path d="M146.5,203.04 C146.5,217.21 146.5,241.35 146.5,257.6 " fill="none" id="U1-&gt;U8" style="stroke: #808080; stroke-width: 1.0;"/><polygon fill="#808080" points="146.5,262.79,150.5,253.79,146.5,257.79,142.5,253.79,146.5,262.79" style="stroke: #808080; stroke-width: 1.0;"/><!--MD5=[351f3be8a69ca9878d7a6f475e7b6071]
link U2 to S1--><path d="M227.75,203.04 C223.1,217.33 215.15,241.77 209.86,258.03 " fill="none" id="U2-&gt;S1" style="stroke: #808080; stroke-width: 1.0;"/><polygon fill="#808080" points="208.31,262.79,214.9113,255.4809,209.8654,258.0381,207.3082,252.9922,208.31,262.79" style="stroke: #808080; stroke-width: 1.0;"/><!--MD5=[e6b506aa406d14e88d28f07a38db53fe]
link U2 to S2--><path d="M235.39,203.04 C240.21,217.33 248.46,241.77 253.94,258.03 " fill="none" id="U2-&gt;S2" style="stroke: #808080; stroke-width: 1.0;"/><polygon fill="#808080" points="255.55,262.79,256.4633,252.9836,253.9517,258.0523,248.883,255.5408,255.55,262.79" style="stroke: #808080; stroke-width: 1.0;"/><!--MD5=[0bcf264ad522dd0596406f3fa0aa6be8]
link U3 to S3--><path d="M311.85,288.04 C302.3,302.45 285.91,327.19 275.14,343.45 " fill="none" id="U3-&gt;S3" style="stroke: #808080; stroke-width: 1.0;"/><polygon fill="#808080" points="272.26,347.79,280.5722,342.5072,275.0269,343.6254,273.9087,338.0801,272.26,347.79" style="stroke: #808080; stroke-width: 1.0;"/><!--MD5=[efe4d6809861a92d2e0806b325145f0b]
link U3 to S4--><path d="M319.5,288.04 C319.5,302.21 319.5,326.35 319.5,342.6 " fill="none" id="U3-&gt;S4" style="stroke: #808080; stroke-width: 1.0;"/><polygon fill="#808080" points="319.5,347.79,323.5,338.79,319.5,342.79,315.5,338.79,319.5,347.79" style="stroke: #808080; stroke-width: 1.0;"/><!--MD5=[ca29a6368ab3f7c524a61d8bd21c49ea]
link U4 to S5--><path d="M374.5,288.04 C374.5,302.21 374.5,326.35 374.5,342.6 " fill="none" id="U4-&gt;S5" style="stroke: #808080; stroke-width: 1.0;"/><polygon fill="#808080" points="374.5,347.79,378.5,338.79,374.5,342.79,370.5,338.79,374.5,347.79" style="stroke: #808080; stroke-width: 1.0;"/><!--MD5=[a421759dae1d1f3313b890d0f59744bf]
link U4 to S6--><path d="M382.15,288.04 C391.7,302.45 408.09,327.19 418.86,343.45 " fill="none" id="U4-&gt;S6" style="stroke: #808080; stroke-width: 1.0;"/><polygon fill="#808080" points="421.74,347.79,420.0913,338.0801,418.9731,343.6254,413.4278,342.5072,421.74,347.79" style="stroke: #808080; stroke-width: 1.0;"/><!--MD5=[c558b7b805c41d0c5ac4a5b3a5cf2120]
link U5 to S7--><path d="M507.75,288.04 C503.1,302.33 495.15,326.77 489.86,343.03 " fill="none" id="U5-&gt;S7" style="stroke: #808080; stroke-width: 1.0;"/><polygon fill="#808080" points="488.31,347.79,494.9113,340.4809,489.8654,343.0381,487.3082,337.9922,488.31,347.79" style="stroke: #808080; stroke-width: 1.0;"/><!--MD5=[6a89887629b2c68d2d5aa0658dc0e250]
link U5 to S8--><path d="M515.39,288.04 C520.21,302.33 528.46,326.77 533.94,343.03 " fill="none" id="U5-&gt;S8" style="stroke: #808080; stroke-width: 1.0;"/><polygon fill="#808080" points="535.55,347.79,536.4633,337.9836,533.9517,343.0523,528.883,340.5408,535.55,347.79" style="stroke: #808080; stroke-width: 1.0;"/><!--MD5=[4ee4d2900b5de946d9af8f046ca3a057]
link U6 to S9--><path d="M594.5,288.04 C594.5,302.21 594.5,326.35 594.5,342.6 " fill="none" id="U6-&gt;S9" style="stroke: #808080; stroke-width: 1.0;"/><polygon fill="#808080" points="594.5,347.79,598.5,338.79,594.5,342.79,590.5,338.79,594.5,347.79" style="stroke: #808080; stroke-width: 1.0;"/><!--MD5=[5278e2a4c695f534553649e5ef148241]
link U6 to S10--><path d="M602.7,288.04 C612.95,302.45 630.53,327.19 642.09,343.45 " fill="none" id="U6-&gt;S10" style="stroke: #808080; stroke-width: 1.0;"/><polygon fill="#808080" points="645.18,347.79,643.2326,338.1356,642.286,343.7127,636.7089,342.7661,645.18,347.79" style="stroke: #808080; stroke-width: 1.0;"/><!--MD5=[de90e9aff7628e77b2472c7a5866a29c]
link U7 to S11--><path d="M72.88,288.04 C62.11,302.45 43.63,327.19 31.49,343.45 " fill="none" id="U7-&gt;S11" style="stroke: #808080; stroke-width: 1.0;"/><polygon fill="#808080" points="28.25,347.79,36.839,342.9703,31.2408,343.7831,30.428,338.185,28.25,347.79" style="stroke: #808080; stroke-width: 1.0;"/><!--MD5=[019877e7d3c3952eb7cf60e963d739e0]
link U7 to S12--><path d="M81.5,288.04 C81.5,302.21 81.5,326.35 81.5,342.6 " fill="none" id="U7-&gt;S12" style="stroke: #808080; stroke-width: 1.0;"/><polygon fill="#808080" points="81.5,347.79,85.5,338.79,81.5,342.79,77.5,338.79,81.5,347.79" style="stroke: #808080; stroke-width: 1.0;"/><!--MD5=[f7c414bf1d085ab49b3105f4282c5fa9]
link U8 to S13--><path d="M146.08,288.04 C145.57,302.21 144.7,326.35 144.11,342.6 " fill="none" id="U8-&gt;S13" style="stroke: #808080; stroke-width: 1.0;"/><polygon fill="#808080" points="143.92,347.79,148.2522,338.9451,144.1061,342.7935,140.2578,338.6473,143.92,347.79" style="stroke: #808080; stroke-width: 1.0;"/><!--MD5=[30a29a325378d810f789fd7cc139473e]
link U8 to S14--><path d="M154.7,288.04 C164.95,302.45 182.53,327.19 194.09,343.45 " fill="none" id="U8-&gt;S14" style="stroke: #808080; stroke-width: 1.0;"/><polygon fill="#808080" points="197.18,347.79,195.2326,338.1356,194.286,343.7127,188.7089,342.7661,197.18,347.79" style="stroke: #808080; stroke-width: 1.0;"/><!--MD5=[9ca103b2f04a8158f2358484e3fe6247]
@startuml

skinparam shadowing false


hide empty members
hide fields

hide circle


skinparam package {
style rectangle
borderColor gray
fontSize 12
}

skinparam arrow {

color gray
}

skinparam class {

borderColor gray
backgroundColor white

fontSize 13
fontName Consolas

attributeFontSize 12
attributeFontName Consolas

stereotypeFontSize 12
stereotypeFontColor gray
stereotypeFontStyle normal
stereotypeFontName Consolas
}


class P
P - -> F1
P - -> F2

F1 - -> U1
F1 - -> U2

F2 - -> F3
F2 - -> F4

F3 - -> U3
F3 - -> U4

F4 - -> U5
F4 - -> U6

U1 - -> U7
U1 - -> U8

U2 - -> S1
U2 - -> S2

U3 - -> S3
U3 - -> S4

U4 - -> S5
U4 - -> S6

U5 - -> S7
U5 - -> S8

U6 - -> S9
U6 - -> S10

U7 - -> S11
U7 - -> S12

U8 - -> S13
U8 - -> S14


@enduml

PlantUML version 1.2019.11(Sun Sep 22 12:02:15 CEST 2019)
(EPL source distribution)
Java Runtime: OpenJDK Runtime Environment
JVM: OpenJDK 64-Bit Server VM
Java Version: 11+28
Operating System: Windows 10
Default Encoding: Cp1250
Language: hu
Country: HU
--></g></svg>