<svg version="1.1" viewBox="0.0 0.0 331.65616797900265 100.0" fill="none" stroke="none" stroke-linecap="square" stroke-miterlimit="10" xmlns:xlink="http://www.w3.org/1999/xlink" xmlns="http://www.w3.org/2000/svg"><clipPath id="p.0"><path d="m0 0l331.65616 0l0 100.0l-331.65616 0l0 -100.0z" clip-rule="nonzero"/></clipPath><g clip-path="url(#p.0)"><path fill="#ffffff" d="m0 0l331.65616 0l0 100.0l-331.65616 0z" fill-rule="evenodd"/><path fill="#000000" fill-opacity="0.0" d="m114.07874 19.862206l103.496056 0" fill-rule="evenodd"/><path stroke="#000000" stroke-width="1.0" stroke-linejoin="round" stroke-linecap="butt" d="m114.07874 19.862206l97.496056 0" fill-rule="evenodd"/><path fill="#000000" stroke="#000000" stroke-width="1.0" stroke-linecap="butt" d="m211.5748 21.513937l4.538101 -1.6517315l-4.538101 -1.6517334z" fill-rule="evenodd"/><path fill="#cfe2f3" d="m217.5748 1.5328071l40.0 0l0 36.66142l-40.0 0z" fill-rule="evenodd"/><path stroke="#000000" stroke-width="1.0" stroke-linejoin="round" stroke-linecap="butt" d="m217.5748 1.5328071l40.0 0l0 36.66142l-40.0 0z" fill-rule="evenodd"/><path fill="#000000" d="m236.71753 26.783512l0 -13.359374l1.765625 0l0 13.359374l-1.765625 0z" fill-rule="nonzero"/><path fill="#d9ead3" d="m74.07874 19.862206l0 0c0 -10.123772 8.9543 -18.33071 20.0 -18.33071l0 0c11.045692 0 20.0 8.206938 20.0 18.33071l0 0c0 10.12377 -8.954308 18.330708 -20.0 18.330708l0 0c-11.0457 0 -20.0 -8.206938 -20.0 -18.330708z" fill-rule="evenodd"/><path stroke="#000000" stroke-width="1.0" stroke-linejoin="round" stroke-linecap="butt" d="m74.07874 19.862206l0 0c0 -10.123772 8.9543 -18.33071 20.0 -18.33071l0 0c11.045692 0 20.0 8.206938 20.0 18.33071l0 0c0 10.12377 -8.954308 18.330708 -20.0 18.330708l0 0c-11.0457 0 -20.0 -8.206938 -20.0 -18.330708z" fill-rule="evenodd"/><path fill="#000000" d="m89.78036 22.485329l1.65625 -0.140625q0.125 1.0 0.546875 1.640625q0.4375 0.640625 1.34375 1.046875q0.921875 0.390625 2.0625 0.390625q1.0 0 1.78125 -0.296875q0.78125 -0.296875 1.15625 -0.8125q0.375 -0.53125 0.375 -1.15625q0 -0.625 -0.375 -1.09375q-0.359375 -0.46875 -1.1875 -0.796875q-0.546875 -0.203125 -2.390625 -0.640625q-1.828125 -0.453125 -2.5625 -0.84375q-0.96875 -0.5 -1.4375 -1.234375q-0.46875 -0.75 -0.46875 -1.671875q0 -1.0 0.578125 -1.875q0.578125 -0.890625 1.671875 -1.34375q1.109375 -0.453125 2.453125 -0.453125q1.484375 0 2.609375 0.484375q1.140625 0.46875 1.75 1.40625q0.609375 0.921875 0.65625 2.09375l-1.6875 0.125q-0.140625 -1.265625 -0.9375 -1.90625q-0.78125 -0.65625 -2.3125 -0.65625q-1.609375 0 -2.34375 0.59375q-0.734375 0.59375 -0.734375 1.421875q0 0.71875 0.53125 1.171875q0.5 0.46875 2.65625 0.96875q2.15625 0.484375 2.953125 0.84375q1.171875 0.53125 1.71875 1.359375q0.5625 0.828125 0.5625 1.90625q0 1.0625 -0.609375 2.015625q-0.609375 0.9375 -1.75 1.46875q-1.140625 0.515625 -2.578125 0.515625q-1.8125 0 -3.046875 -0.53125q-1.21875 -0.53125 -1.921875 -1.59375q-0.6875 -1.0625 -0.71875 -2.40625z" fill-rule="nonzero"/></g></svg>